<?xml version="1.0" encoding="UTF-8"?>
<svg width="39px" height="39px" viewBox="0 0 39 33" version="1.1" xmlns="http://www.w3.org/2000/svg" xmlns:xlink="http://www.w3.org/1999/xlink">
    <!-- Generator: Sketch 52.2 (67145) - http://www.bohemiancoding.com/sketch -->
    <title>Page 1</title>
    <desc>Created with Sketch.</desc>
    <defs>
        <polygon id="path-1" points="38.9263149 10.6085627 38.9263149 21.0957917 0 21.0957917 0 10.6085627 0 0.121333765 38.9263149 0.121333765 38.9263149 10.6085627"></polygon>
    </defs>
    <g id="Page-1" stroke="none" stroke-width="1" fill="none" fill-rule="evenodd">
        <g id="iPhone-5/5S/5C-Copy" transform="translate(-141.000000, -8.000000)">
            <g id="Page-1" transform="translate(141.000000, 8.000000)">
                <path d="M26.6708553,11.6190182 C23.9270809,11.6195126 21.621766,12.3108942 19.812,13.43441 C19.6901872,13.510223 19.5804894,13.5952654 19.4633234,13.6742098 C18.5731277,14.2774176 17.8142043,14.9859395 17.1931915,15.7719226 C16.9782766,16.0435309 16.7801234,16.3227205 16.5988979,16.6103155 C15.6683745,18.086032 15.1701702,19.7525996 15.1691745,21.4287262 C15.1701702,23.3095478 15.7880298,25.1814697 16.9522213,26.7803 C17.9771745,26.0053593 18.735766,24.9726544 19.137217,23.7898067 C18.8607319,23.0499707 18.7048979,22.2578897 18.7053957,21.4287262 C18.7048979,20.7528368 18.8099489,20.1013394 18.9959872,19.4821449 C19.1158085,19.0833026 19.2731362,18.7014358 19.4628255,18.3342372 C19.9855915,17.3246058 20.7602809,16.4489656 21.7336213,15.7719226 C21.8685447,15.6779804 22.0023064,15.5830493 22.1445319,15.4971828 C23.4063064,14.7357566 24.9510383,14.2909321 26.6708553,14.2919209 C31.2793277,14.289284 34.6351532,17.4834835 34.6326638,21.4287262 C34.6351532,25.3724855 31.2793277,28.5676739 26.6708553,28.5645425 C25.1397319,28.5655314 23.7513319,28.2078918 22.5735319,27.5928176 C21.9850468,28.3923152 21.2689404,29.1263828 20.4288638,29.7648601 C22.1377277,30.6793956 24.2254723,31.2364564 26.6708553,31.2374453 C33.965017,31.2349731 38.1662298,26.3540991 38.1687191,21.4287262 C38.1662298,16.5028588 33.965017,11.6209959 26.6708553,11.6190182" id="Fill-1" fill="#929292"></path>
                <g id="Group-5" transform="translate(0.000000, 11.207963)">
                    <mask id="mask-2" fill="white">
                        <use xlink:href="#path-1"></use>
                    </mask>
                    <g id="Clip-4"></g>
                    <path d="M26.6708553,0.121828197 C23.8009532,0.121828197 21.3786383,0.837272196 19.4633234,2.00363874 C19.3451617,2.07566109 19.2296553,2.15114447 19.1153106,2.22646304 C18.2134979,2.82077105 17.4336638,3.51808585 16.7822809,4.28874149 C16.5534255,4.55936095 16.341166,4.83855056 16.1445064,5.12614554 C15.0113489,6.78167075 14.4122426,8.69199358 14.4122426,10.6090737 C14.4122426,12.5263185 15.0113489,14.4356525 16.1445064,16.0910129 C15.0427149,16.7062519 13.7238511,17.0665285 12.2586128,17.0665285 C8.07997021,17.0665285 5.05058298,14.1879418 5.05058298,10.6085792 C5.05058298,7.02872225 8.07997021,4.15013555 12.2586128,4.15013555 C13.7238511,4.15013555 15.0432128,4.51041212 16.1445064,5.12565111 C16.341166,4.83805613 16.5534255,4.5587017 16.7822809,4.28824706 C15.5208383,3.52665602 13.9772681,3.0823259 12.2586128,3.08347958 C7.64814894,3.08084261 4.29066383,6.27504213 4.29315319,10.2202848 C4.29066383,14.1640442 7.64814894,17.3592326 12.2586128,17.3561012 C13.7890723,17.35709 15.1759787,16.9994504 16.3531149,16.3848707 C16.6468596,16.2311021 16.9271617,16.0615118 17.1931915,15.876594 C18.1658681,15.1995509 18.9405574,14.3239107 19.4628255,13.3137849 C19.5858,13.076622 19.695,12.8325371 19.788434,12.5813654 C20.0649191,11.8413645 20.2209191,11.0492835 20.2202553,10.2202848 C20.2209191,9.54439542 20.1157021,8.89339247 19.9296638,8.27353878 C20.4079532,7.11607202 21.2380723,6.12440499 22.3279149,5.40286299 C23.2574426,6.87808512 23.7556468,8.54415823 23.7564766,10.2202848 C23.7556468,12.1011065 23.1382851,13.9730284 21.9740936,15.5713642 C21.8987489,15.6756895 21.8141106,15.7749056 21.7336213,15.8760995 C21.1126085,16.6614233 20.3536851,17.3706045 19.4633234,17.9738123 C19.156634,18.181474 18.8356723,18.3756212 18.4979489,18.5564187 C16.7900809,19.4709543 14.702834,20.028015 12.2586128,20.0290039 C4.96129787,20.0265317 0.760085106,15.1456577 0.756931915,10.2202848 C0.760085106,5.29441744 4.96129787,0.412554577 12.2586128,0.410412035 C15.0013915,0.411071279 17.3060426,1.10245289 19.1153106,2.22596861 C19.2296553,2.15065004 19.3451617,2.07533147 19.4633234,2.00314431 C17.5486723,0.836612952 15.1273532,0.121333765 12.2586128,0.121333765 C4.49860851,0.121333765 0,5.34320146 0,10.6085792 C0,15.8734626 4.49860851,21.0953302 12.2586128,21.0953302 C15.1273532,21.0953302 17.5486723,20.3800511 19.4633234,19.2135197 C19.8010468,19.0080005 20.1236681,18.7889669 20.4288638,18.5564187 C21.2689404,17.9179414 21.9850468,17.183709 22.5735319,16.3843763 C22.6452255,16.2877971 22.7142638,16.1895698 22.7821404,16.0910129 C23.914966,14.4356525 24.5140723,12.5256593 24.5140723,10.6085792 C24.5140723,8.69199358 23.914966,6.78167075 22.7821404,5.12614554 C23.8840979,4.51107136 25.2039574,4.15062998 26.6708553,4.15062998 C30.8463447,4.15062998 33.8750681,7.02921669 33.8750681,10.6090737 C33.8750681,14.1884362 30.8463447,17.0670229 26.6708553,17.0670229 C25.2039574,17.0670229 23.8840979,16.7067463 22.7821404,16.0916721 C22.7142638,16.1900642 22.6452255,16.2882915 22.5735319,16.3848707 C23.7513319,16.9999449 25.1397319,17.3575845 26.6708553,17.3565956 C31.2793277,17.359727 34.6351532,14.1645386 34.6326638,10.2207792 C34.6351532,6.27553656 31.2793277,3.08133704 26.6708553,3.08397401 C24.9510383,3.08298515 23.4063064,3.52780969 22.1445319,4.28923593 C22.0023064,4.37510239 21.8685447,4.47003345 21.7336213,4.56397565 C20.7602809,5.24101872 19.9855915,6.11665888 19.4628255,7.12629029 C19.2731362,7.49348891 19.1158085,7.87535571 18.9959872,8.27419802 C18.8099489,8.89339247 18.7048979,9.54488985 18.7053957,10.2207792 C18.7048979,11.0499427 18.8607319,11.8420238 19.137217,12.5813654 C18.735766,13.7647074 17.9771745,14.7969179 16.9522213,15.5718587 L16.9522213,15.5723531 C15.7880298,13.9735228 15.1701702,12.1016009 15.1691745,10.2207792 C15.1701702,8.54448785 15.6683745,6.87808512 16.5988979,5.40236856 C16.7801234,5.11477359 16.9782766,4.83558397 17.1931915,4.56397565 C17.8142043,3.7779926 18.5731277,3.06947066 19.4633234,2.46626286 C19.5804894,2.38731845 19.6901872,2.30227604 19.812,2.22646304 C21.621766,1.10294732 23.9270809,0.411565711 26.6708553,0.411071279 C33.965017,0.413049009 38.1662298,5.29491187 38.1687191,10.2207792 C38.1662298,15.1461522 33.965017,20.0268614 26.6708553,20.0294983 C24.2254723,20.0285095 22.1377277,19.4714487 20.4288638,18.5567484 C20.1236681,18.7894613 19.8010468,19.008495 19.4633234,19.2140141 C21.3786383,20.3805455 23.8009532,21.0958247 26.6708553,21.0958247 C34.4275404,21.0958247 38.9263149,15.873957 38.9263149,10.6090737 C38.9263149,5.34369589 34.4275404,0.121828197 26.6708553,0.121828197" id="Fill-3" fill="#FFFFFF" mask="url(#mask-2)"></path>
                </g>
                <path d="M22.3279315,16.6103484 C21.2380889,17.3318904 20.4079698,18.3233927 19.9296804,19.4815187 C20.1157187,20.1008779 20.2209357,20.7523753 20.2202719,21.4282647 C20.2209357,22.2572634 20.0649357,23.0493444 19.7884506,23.7893453 C19.6950166,24.040517 19.5858166,24.2844371 19.4628421,24.5217648 C18.940574,25.5318906 18.1658847,26.4075308 17.1930421,27.0845738 C16.9270123,27.2694916 16.6468762,27.439082 16.3531315,27.5928506 C15.1759953,28.2074303 13.7890889,28.5650699 12.2586294,28.564081 C7.64799957,28.5672125 4.29051447,25.3720241 4.29316979,21.4282647 C4.29051447,17.483022 7.64799957,14.2888225 12.2586294,14.2914595 C13.9772847,14.2903058 15.5208549,14.7346359 16.7822974,15.4962269 C17.4336804,14.7252417 18.2135145,14.0282565 19.1153272,13.4339485 C17.3060591,12.3104328 15.0014081,11.6190512 12.2586294,11.6183919 C4.96131447,11.6205345 0.760101702,16.5023973 0.756948511,21.4282647 C0.760101702,26.3536376 4.96131447,31.2343468 12.2586294,31.2369838 C14.7028506,31.2359949 16.7900974,30.6789342 18.4979655,29.7643986 C18.835523,29.5836011 19.1566506,29.3894539 19.46334,29.1817922 C20.3537017,28.5785844 21.1126251,27.8694032 21.7336379,27.0840794 C21.8141272,26.9828855 21.8987655,26.8836694 21.9741102,26.7793441 C23.1383017,25.1810083 23.7554974,23.3090864 23.7564932,21.4282647 C23.7554974,19.7519733 23.2572932,18.0855706 22.3279315,16.6103484" id="Fill-6" fill="#929292"></path>
                <path d="M19.4628919,2.96209637 C14.8524281,2.95995383 11.494777,6.15365892 11.4974323,10.0990664 C11.4969345,10.5226304 11.5429047,10.9353168 11.6177515,11.338609 C11.6365047,11.4394732 11.6542621,11.5395134 11.6773302,11.6387296 C11.9068494,12.6249578 12.3579217,13.5314176 12.9852409,14.3183896 C13.3646196,14.7938689 13.8027472,15.2294641 14.3041047,15.6047384 C14.8106068,15.9838034 15.379343,16.2999107 15.9918919,16.5556972 C16.0410153,16.4795545 16.092794,16.404236 16.1445728,16.3289174 C16.1571855,16.310129 16.1696323,16.2910109 16.182743,16.2723873 C15.176377,15.8288812 14.3243515,15.1862836 13.6724706,14.3978284 C13.0107983,13.5978364 12.5575685,12.6524813 12.3652238,11.618293 C12.3474664,11.5218787 12.3317004,11.4243106 12.3180919,11.3260834 C12.2810834,11.051014 12.2548621,10.7728133 12.2548621,10.487196 C12.2548621,6.90733905 15.2840834,4.02941159 19.4628919,4.02941159 C23.6383813,4.02941159 26.6671047,6.90733905 26.6671047,10.487196 C26.6671047,10.7728133 26.6410494,11.051014 26.6038749,11.3260834 C26.5902664,11.4248051 26.5745004,11.5223731 26.5569089,11.6189523 C26.3645643,12.6531405 25.9111685,13.5988253 25.2494962,14.3989821 C24.5981132,15.1862836 23.7470834,15.8283868 22.7430409,16.2713984 C22.7566494,16.2905165 22.7690962,16.3096345 22.7822068,16.3294118 C22.8334877,16.404236 22.8846026,16.4790601 22.933726,16.5548731 C23.5449472,16.2994163 24.1126877,15.9847923 24.6175302,15.6063865 C25.1193855,15.2309474 25.5575132,14.7948578 25.9373898,14.3183896 C26.5647089,13.5314176 27.0152834,12.6249578 27.2448026,11.6387296 C27.2677047,11.539019 27.286126,11.438814 27.3043813,11.338609 C27.3790621,10.9346575 27.4250323,10.5226304 27.4247004,10.0990664 C27.4271898,6.15365892 24.0711983,2.95995383 19.4628919,2.96209637" id="Fill-8" fill="#FFFFFF"></path>
                <path d="M19.4628919,1.64810873e-05 C11.7028877,1.64810873e-05 7.20427915,5.22237861 7.20427915,10.4872619 C7.20427915,11.0354229 7.25605787,11.582595 7.35164936,12.1236691 C7.37106638,12.2316202 7.3893217,12.3384177 7.41172596,12.4453799 C7.60938128,13.3714522 7.94810043,14.2736269 8.4165983,15.1255343 C8.58587489,15.433401 8.77191319,15.7345105 8.97537702,16.0278739 C10.2245387,17.8271142 12.1126366,19.31651 14.5596791,20.1761635 C14.6219132,19.8267645 14.7038962,19.4800024 14.8047983,19.1368662 C12.7202068,18.3965357 11.0792196,17.1683651 9.92564936,15.6806173 C9.69778979,15.3865948 9.48702383,15.0844964 9.29833021,14.7721798 C8.80327915,13.9550475 8.44364936,13.0828684 8.22358979,12.1833306 C8.19853021,12.0788405 8.16816,11.9761634 8.14675149,11.8711788 C8.02593447,11.2865947 7.96170894,10.6934403 7.96121106,10.0989675 C7.96436426,5.17359459 12.165577,0.291896537 19.4628919,0.289753995 C26.7570536,0.291896537 30.9582664,5.17359459 30.9607557,10.0989675 C30.9602579,10.6927811 30.8961983,11.2857706 30.7758791,11.8692011 C30.7538068,11.9740208 30.7239345,12.0773572 30.6990409,12.1816825 C30.4794791,13.0812203 30.1198494,13.9533994 29.6252962,14.7705317 C29.4361047,15.0831779 29.2258366,15.3852763 28.997977,15.6789692 C27.8449047,17.1673762 26.2045813,18.3955469 24.1208196,19.1368662 C24.2223855,19.4793432 24.3043685,19.82627 24.3666026,20.1761635 C26.8124834,19.3153563 28.6994196,17.825466 29.9484153,16.0262257 C30.1517132,15.7335216 30.3377515,15.4319177 30.507194,15.124051 C30.975526,14.2723084 31.3137472,13.3694745 31.5109047,12.4443911 C31.5336409,12.3374288 31.5520621,12.2294777 31.5709813,12.1225154 C31.6670706,11.5814413 31.7183515,11.0349285 31.7183515,10.4872619 C31.7183515,5.22237861 27.219577,1.64810873e-05 19.4628919,1.64810873e-05" id="Fill-10" fill="#FFFFFF"></path>
                <path d="M19.4628919,0.289721033 C12.165577,0.291863575 7.96436426,5.17356163 7.96121106,10.0990994 C7.96170894,10.6934074 8.02593447,11.2867265 8.14675149,11.8711459 C8.16816,11.9761304 8.19853021,12.0788076 8.22358979,12.1832977 C8.44364936,13.0828354 8.80327915,13.9550145 9.29833021,14.7721469 C9.48702383,15.0846283 9.69778979,15.3867266 9.92564936,15.6805844 C11.0792196,17.1683321 12.7202068,18.3965028 14.8047983,19.1368332 C15.0703302,18.2381195 15.4671345,17.3682477 15.9918919,16.5557301 C15.379343,16.2999436 14.8106068,15.9838364 14.3041047,15.6047714 C13.8027472,15.2293322 13.3646196,14.7939019 12.9852409,14.3184225 C12.3579217,13.5314506 11.9068494,12.6249908 11.6773302,11.6385977 C11.6542621,11.5395464 11.6365047,11.4393414 11.6177515,11.3386419 C11.5429047,10.9353497 11.4969345,10.5226633 11.4974323,10.0990994 C11.494777,6.15369189 14.8524281,2.95998679 19.4628919,2.96212934 C24.0711983,2.95998679 27.4271898,6.15369189 27.4247004,10.0990994 C27.4250323,10.5226633 27.3790621,10.9346905 27.3043813,11.3386419 C27.286126,11.4386821 27.2677047,11.539052 27.2448026,11.6385977 C27.0152834,12.6249908 26.5647089,13.5314506 25.9373898,14.3184225 C25.5575132,14.7948908 25.1193855,15.2309803 24.6175302,15.6064195 C24.1126877,15.9846604 23.5449472,16.2994492 22.933726,16.5547413 C23.4591472,17.3677533 23.8559515,18.2376251 24.1208196,19.1368332 C26.2045813,18.3955139 27.8449047,17.1673433 28.997977,15.6789363 C29.2258366,15.3852433 29.4361047,15.083145 29.6252962,14.7704987 C30.1198494,13.9533664 30.4794791,13.0811873 30.6990409,12.1816496 C30.7239345,12.0773243 30.7538068,11.9739879 30.7758791,11.8691681 C30.8961983,11.2857377 30.9602579,10.6927481 30.9607557,10.0990994 C30.9582664,5.17356163 26.7570536,0.291863575 19.4628919,0.289721033" id="Fill-12" fill="#7DFF00"></path>
            </g>
        </g>
    </g>
</svg>
