<svg className="logo__img" width="180" height="180" viewBox="0 0 180 180" xmlns="http://www.w3.org/2000/svg">
  <title>Colours</title>
  <g fill="none">
    <path id="square" fill="currentColor" d="M0 180h180V0H0" />
    <path
      d="M35.505 78.716c-.794-3.04-2.072-5.377-5.686-5.377-6.258 0-6.787 7.316-6.787 13.09 0 7.357 2.16 11.807 8.154 11.807 2.952 0 5.33-.924 7.58-2.292l.925 4.058c-1.676 1.058-4.936 2.38-9.21 2.38-10.137 0-12.516-8.245-12.516-16.264 0-8.506 2.2-16.703 11.898-16.703 7.313 0 9.43 4.363 10.224 8.197-1.543.353-3.04.706-4.583 1.102M56.516 89.955c0-3.836-.613-8.287-4.58-8.287-4.142 0-4.938 4.935-4.938 8.55 0 4.45 1.015 8.283 4.67 8.283 3.925 0 4.848-4.362 4.848-8.545zm-14.322.22c0-6.743 3.042-12.296 9.875-12.296 7.27 0 9.252 5.683 9.252 11.9 0 6.165-2.556 12.514-9.783 12.514-7.318 0-9.346-6.304-9.346-12.12zM66.515 70.078h4.715v24.987c0 2.29.574 3.305 2.205 3.305.925 0 2.116-.35 3.304-.882l.572 3.66c-1.41.662-3.393 1.054-4.977 1.054-4.585 0-5.82-2.597-5.82-6.52V70.077M94.1 89.955c0-3.836-.62-8.287-4.584-8.287-4.142 0-4.936 4.935-4.936 8.55 0 4.45 1.014 8.283 4.67 8.283 3.925 0 4.85-4.362 4.85-8.545zm-14.324.22c0-6.743 3.042-12.296 9.873-12.296 7.27 0 9.253 5.683 9.253 11.9 0 6.165-2.556 12.514-9.78 12.514-7.32 0-9.347-6.304-9.347-12.12zM117.848 99.295c-2.03 1.678-4.32 2.907-7.227 2.907-3.79 0-5.82-1.715-6.303-4.802-.135-.794-.176-2.025-.176-2.907v-15.6l4.674-.573v15.554c0 1.105.04 1.632.13 2.116.31 1.63 1.412 2.247 3.128 2.247 2.116 0 3.835-1.06 5.554-2.556V78.32h4.673v23.443h-4.323l-.13-2.468M143.973 81.317l-3.393 2.42c-.75-1.32-1.368-1.938-2.426-1.938-1.584 0-2.996 1.014-4.668 2.777v17.186h-4.673V78.32H133l.177 2.51c1.276-1.452 3.526-2.95 5.95-2.95 2.378 0 3.746 1.19 4.846 3.437M146.743 95.857c1.28 1.192 4.32 2.734 6.567 2.734 2.38 0 3.88-.88 3.88-2.997 0-2.292-2.115-2.996-4.63-3.833l-.395-.13c-3.042-1.014-6.26-2.118-6.26-6.834 0-4.494 3.75-6.917 8.112-6.917 5.153 0 7.447 2.996 8.02 5.507l-3.615 1.366c-.75-2.203-2.42-3.217-4.275-3.217-1.982 0-3.615.837-3.615 2.91 0 2.336 2.247 3.084 4.76 3.833l.444.13c2.95.883 6.167 2.294 6.167 6.698 0 4.01-2.907 7.186-8.505 7.186-3.438 0-6.743-1.5-7.93-2.513l1.275-3.923"
      fill="#FFF" />
  </g>
</svg>
