<svg width="160" height="51" xmlns="http://www.w3.org/2000/svg" xmlns:xlink="http://www.w3.org/1999/xlink"><defs><path id="a" d="M17.765.036H.05V14.71h17.716z"/><path id="c" d="M0 .053V.83h3.036V.053H0z"/><path id="e" d="M.016.84h3.45V.063H.017z"/><path id="g" d="M.016 14.384h.549V.058h-.55z"/><path id="i" d="M.04 14.384h.548V.058H.041z"/><path id="k" d="M0 50.07h159.936V.12H0z"/></defs><g fill="none" fill-rule="evenodd"><path d="M85.962 8.57c-1.983 0-3.65.504-4.957 1.32-.088.056-.168.118-.252.175a7.321 7.321 0 0 0-1.641 1.526c-.155.197-.299.4-.43.61a6.618 6.618 0 0 0-1.033 3.504c0 1.368.447 2.73 1.289 3.892a4.568 4.568 0 0 0 1.579-2.175 4.907 4.907 0 0 1-.312-1.717 4.924 4.924 0 0 1 .547-2.25 5.16 5.16 0 0 1 1.641-1.864c.098-.068.195-.137.297-.2.912-.554 2.029-.877 3.272-.876 3.33-.002 5.755 2.32 5.754 5.19.001 2.869-2.424 5.192-5.754 5.19-1.107 0-2.11-.26-2.962-.707a7.753 7.753 0 0 1-1.55 1.58c1.235.665 2.744 1.07 4.512 1.071 5.271-.002 8.307-3.551 8.31-7.134-.003-3.582-3.039-7.133-8.31-7.135z" fill="#929292"/><path d="M85.962 8.36c-2.075 0-3.825.52-5.21 1.369a7.893 7.893 0 0 0-1.938 1.662c-.164.197-.318.4-.46.609a7.103 7.103 0 0 0-1.252 3.988 7.1 7.1 0 0 0 1.252 3.987c-.796.447-1.75.71-2.808.71-3.02 0-5.21-2.094-5.21-4.698 0-2.603 2.19-4.697 5.21-4.697 1.059 0 2.012.262 2.808.71.142-.21.296-.413.46-.61-.91-.553-2.026-.877-3.268-.876-3.333-.002-5.759 2.321-5.757 5.19-.002 2.87 2.424 5.193 5.757 5.19a6.32 6.32 0 0 0 2.959-.706c.212-.111.415-.235.607-.37a5.157 5.157 0 0 0 1.64-1.863 4.905 4.905 0 0 0 .337-3.666 4.625 4.625 0 0 1 1.734-2.088 6.62 6.62 0 0 1 1.032 3.504c0 1.368-.446 2.73-1.288 3.892-.054.076-.115.148-.174.221a7.327 7.327 0 0 1-1.64 1.526 7.841 7.841 0 0 1-.698.424c-1.234.665-2.743 1.07-4.51 1.07-5.273 0-8.31-3.55-8.312-7.133.002-3.583 3.039-7.133 8.313-7.135 1.982 0 3.647.503 4.955 1.32.083-.054.166-.11.252-.162-1.384-.848-3.134-1.368-5.207-1.368-5.609 0-8.86 3.798-8.86 7.627 0 3.83 3.251 7.627 8.86 7.627 2.073 0 3.823-.52 5.207-1.368.244-.15.477-.309.697-.478a7.753 7.753 0 0 0 1.701-1.793 7.103 7.103 0 0 0 1.252-3.988A7.104 7.104 0 0 0 83.15 12c.797-.448 1.75-.71 2.81-.71 3.018 0 5.207 2.094 5.207 4.698 0 2.603-2.189 4.697-5.206 4.697-1.06 0-2.014-.262-2.81-.71-.05.072-.1.143-.152.213a6.324 6.324 0 0 0 2.962.707c3.33.002 5.755-2.321 5.754-5.19.001-2.87-2.424-5.192-5.754-5.19-1.243-.001-2.36.322-3.272.876-.102.063-.2.132-.297.2a5.16 5.16 0 0 0-1.64 1.864 4.924 4.924 0 0 0-.547 2.25c-.002.603.111 1.18.31 1.717a4.566 4.566 0 0 1-1.578 2.175c-.842-1.162-1.288-2.524-1.289-3.892 0-1.219.36-2.431 1.033-3.504a7.321 7.321 0 0 1 2.07-2.135c.085-.058.165-.12.253-.175 1.308-.817 2.974-1.32 4.957-1.32 5.271 0 8.307 3.552 8.31 7.134-.003 3.583-3.039 7.132-8.31 7.134-1.768 0-3.277-.406-4.512-1.07-.22.168-.453.328-.697.477 1.384.849 3.134 1.369 5.209 1.369 5.605 0 8.857-3.798 8.857-7.627 0-3.83-3.252-7.628-8.857-7.628" fill="#FFF"/><path d="M82.823 12.2a4.623 4.623 0 0 0-1.733 2.089c.134.45.21.924.21 1.416a4.905 4.905 0 0 1-.548 2.25 5.157 5.157 0 0 1-1.64 1.864 5.675 5.675 0 0 1-.607.37 6.32 6.32 0 0 1-2.96.706c-3.332.002-5.758-2.322-5.756-5.19-.002-2.87 2.424-5.193 5.757-5.19 1.242-.002 2.357.322 3.269.875a7.887 7.887 0 0 1 1.686-1.5c-1.308-.817-2.973-1.32-4.955-1.32-5.274.002-8.31 3.552-8.313 7.135.002 3.582 3.039 7.132 8.313 7.134 1.766 0 3.275-.406 4.509-1.071.244-.132.476-.273.698-.424a7.33 7.33 0 0 0 1.64-1.526c.059-.073.12-.145.174-.221a6.655 6.655 0 0 0 1.288-3.892c0-1.22-.36-2.431-1.032-3.504" fill="#929292"/><path d="M80.752 2.274c-3.332-.001-5.758 2.321-5.756 5.191 0 .308.032.608.086.902.014.073.027.146.044.218.165.717.491 1.376.945 1.949.274.346.59.662.953.935.366.276.777.506 1.22.692.035-.055.073-.11.11-.165l.028-.041a4.908 4.908 0 0 1-1.815-1.363 4.446 4.446 0 0 1-.978-2.235 4.585 4.585 0 0 1-.046-.61c0-2.603 2.19-4.697 5.21-4.697 3.017 0 5.206 2.094 5.206 4.697a4.565 4.565 0 0 1-.08.823 4.447 4.447 0 0 1-.945 2.022 4.91 4.91 0 0 1-1.811 1.362l.028.042.11.164a5.658 5.658 0 0 0 1.217-.69c.362-.273.679-.59.953-.936a4.918 4.918 0 0 0 .945-1.95c.017-.072.03-.145.043-.217.054-.294.088-.594.087-.902.002-2.87-2.423-5.192-5.754-5.19" fill="#FFF"/><g transform="translate(71.844 .084)"><mask id="b" fill="#fff"><use xlink:href="#a"/></mask><path d="M8.908.036C3.3.036.048 3.834.048 7.664c0 .398.038.796.107 1.19.014.078.027.156.044.234a7.17 7.17 0 0 0 .726 1.949c.122.224.257.443.404.656.902 1.309 2.267 2.392 4.036 3.017.045-.254.104-.506.177-.755-1.507-.539-2.693-1.432-3.527-2.514a6.733 6.733 0 0 1-1.23-2.544c-.018-.076-.04-.15-.055-.227a6.433 6.433 0 0 1-.134-1.289C.598 3.8 3.634.248 8.908.247c5.272.001 8.308 3.552 8.31 7.134 0 .432-.047.863-.134 1.288-.016.076-.037.151-.055.227a6.73 6.73 0 0 1-1.23 2.544c-.833 1.082-2.018 1.975-3.524 2.515.073.249.132.5.177.755 1.768-.626 3.132-1.71 4.034-3.018.147-.213.282-.432.404-.656.339-.62.583-1.276.725-1.949.017-.078.03-.156.044-.234.07-.394.106-.791.106-1.19 0-3.829-3.25-7.627-8.857-7.627" fill="#FFF" mask="url(#b)"/></g><path d="M80.752.33c-5.274.002-8.31 3.553-8.312 7.135 0 .432.047.864.134 1.289.015.076.037.15.055.227a6.733 6.733 0 0 0 1.23 2.544c.834 1.082 2.02 1.975 3.527 2.513a7.265 7.265 0 0 1 .858-1.877 5.678 5.678 0 0 1-1.22-.692 5.248 5.248 0 0 1-.953-.935 4.918 4.918 0 0 1-.945-1.95c-.017-.071-.03-.144-.044-.217a4.927 4.927 0 0 1-.086-.902c-.002-2.87 2.424-5.192 5.756-5.19 3.33-.002 5.756 2.32 5.754 5.19 0 .308-.033.608-.087.902a4.866 4.866 0 0 1-.043.218 4.918 4.918 0 0 1-.945 1.949 5.239 5.239 0 0 1-.953.937 5.663 5.663 0 0 1-1.217.69c.38.59.666 1.223.858 1.877 1.506-.539 2.691-1.432 3.524-2.515a6.73 6.73 0 0 0 1.23-2.544c.018-.075.04-.15.055-.227.087-.424.134-.855.134-1.287-.002-3.582-3.038-7.133-8.31-7.134" fill="#7DFF00"/><path fill="#FFF" d="M3.036 26.787l-.547-.5h9.92v.5zM12.11 28.802v.776H6.338l-.547-.776z"/><path fill="#FFF" d="M5.791 28.802l.547.776v6.281l-.547.213zM5.791 36.36l.547-.5h5.772v.5zM.55 36.36l-.55-.5h2.49l.545.5zM3.036 36.072l-.547-.213v-9.572l.547.21zM12.11 36.072v-.213c2.72 0 3.948-1.466 3.948-3.14 0-1.676-1.227-3.141-3.948-3.141v-.775c3.054-.012 4.499 1.703 4.495 3.633.004 1.932-1.441 3.644-4.495 3.636"/><g transform="translate(0 38.322)"><mask id="d" fill="#fff"><use xlink:href="#c"/></mask><path fill="#FFF" mask="url(#d)" d="M3.036.053L2.489.83H0L.55.053z"/></g><path fill="#FFF" d="M12.408 38.375v.777h-6.07l-.547-.777z"/><path d="M12.408 26.497v-.21c2.323 0 4.197.688 5.492 1.835 1.293 1.15 2.007 2.758 2.007 4.597 0 1.84-.714 3.447-2.007 4.595-1.295 1.15-3.169 1.837-5.492 1.837v-.776c2.186-.001 3.92-.64 5.108-1.693 1.184-1.052 1.783-2.714 1.844-4.246-.06-1.532-.66-3.195-1.844-4.244-1.188-1.054-2.922-1.693-5.108-1.695M.55 38.375l-.55.777v-3.293l.55.213zM5.791 44.298l.547.778H2.489l.546-.778z" fill="#FFF"/><path fill="#FFF" d="M5.791 38.375l.547.777v5.924l-.547-.778z"/><path d="M12.11 36.072c3.054.008 4.499-1.704 4.495-3.636.004-1.93-1.441-3.645-4.495-3.633H5.791v7.27h6.32zm.298-9.575c2.186.002 3.92.641 5.108 1.695 1.184 1.05 1.783 2.712 1.844 4.244-.06 1.532-.66 3.194-1.844 4.246-1.188 1.053-2.922 1.692-5.108 1.693H5.791v5.923H3.035v-5.923H.55v-2.303h2.485v-9.575h9.373z" fill="#929292"/><path fill="#FFF" d="M3.036 44.298l-.547.778V39.15l.547-.776zM30.258 42.742v-.21c3.019 0 5.208-2.094 5.208-4.697 0-2.604-2.189-4.697-5.208-4.697-3.02 0-5.21 2.093-5.21 4.697 0 2.603 2.19 4.696 5.21 4.696v.211c-3.33.002-5.758-2.321-5.758-5.19 0-2.87 2.428-5.192 5.758-5.19 3.33-.002 5.757 2.32 5.754 5.19.003 2.869-2.424 5.192-5.754 5.19"/><path d="M30.258 30.418v-.21c5.606 0 8.857 3.797 8.857 7.627 0 3.829-3.25 7.627-8.857 7.627-5.609 0-8.858-3.798-8.858-7.627 0-3.83 3.25-7.628 8.858-7.628v.21c-5.275.002-8.31 3.553-8.312 7.135.001 3.582 3.037 7.132 8.312 7.135 5.271-.003 8.308-3.553 8.311-7.135-.003-3.582-3.04-7.133-8.31-7.134" fill="#FFF"/><path d="M30.258 42.742c3.33.002 5.757-2.321 5.754-5.19.003-2.87-2.424-5.192-5.754-5.19-3.33-.002-5.758 2.32-5.758 5.19 0 2.869 2.428 5.192 5.758 5.19m0-12.324c5.271.001 8.308 3.552 8.311 7.134-.003 3.583-3.04 7.132-8.31 7.135-5.276-.003-8.312-3.552-8.313-7.135.001-3.582 3.037-7.133 8.312-7.134" fill="#929292"/><path d="M49.27 34.497c.067.14.127.25.258.436-.109-.147-.24-.347-.353-.5.055.027.09.048.095.064M48.768 30.443v-.236c.764 0 1.426.2 1.892.5l-.663-.088a4.467 4.467 0 0 0-1.229-.176M42.846 31.094l-.547-.5h3.25l-.546.5z" fill="#FFF"/><path fill="#FFF" d="M45.003 30.804l.547-.21v1.587l-.547.21zM45.978 32.39l-.362-.21c.567-1.197 1.76-1.973 3.152-1.973v.21c-1.159 0-2.164.651-2.79 1.974"/><path fill="#FFF" d="M45.003 32.68l.547-.5h.066l.363.5zM49.997 30.576l.663.078-1.227 3.083-.258-1.1z"/><path d="M49.198 32.662c.013.088.027.168.053.293.05.235.127.547.182.782-.332-.238-.962-.42-1.294-.42-1.261 0-2.39.866-2.39 2.183l-.547-.281c0-1.606 1.392-2.68 2.937-2.678.409.003 1.067.18 1.059.121" fill="#FFF"/><path fill="#FFF" d="M45.203 35.219l.546.28v9.577l-.546-.778z"/><path fill="#FFF" d="M45.203 44.298l.546.778H42.3l.547-.778z"/><path d="M48.768 30.418c.663 0 1.223.154 1.229.158l-.822 2.061c.164.12-.586-.093-1.036-.096-1.545-.001-2.938 1.072-2.936 2.678v9.079h-2.357V30.804h2.157v1.587h.976c.625-1.323 1.63-1.973 2.79-1.973" fill="#929292"/><path fill="#FFF" d="M42.846 44.298l-.547.778V30.594l.547.21zM53.795 26.858l-.549-.091 3.45-.87-.546.367zM56.15 31.094l.546-.5h2.754l-.547.5zM51.837 31.094l-.55-.5h1.96l.548.5z"/><path fill="#FFF" d="M53.795 30.804l-.549-.21v-3.827l.549.091zM56.15 26.264l.546-.368v4.698l-.546.21zM58.903 32.75l.547.776h-2.754l-.546-.776zM58.903 30.804l.547-.21v2.932l-.547-.776zM51.837 32.75l-.55.776v-2.932l.55.21zM53.795 32.75l-.549.776h-1.958l.549-.776z"/><path fill="#FFF" d="M56.15 32.75l.546.776v5.716l-.546-.285zM53.795 39.527l-.549.282v-6.283l.549-.776z"/><path d="M56.15 38.957l.546.285c0 1.554.399 2.27 1.427 2.812l-.275.144c-1.23-.644-1.706-1.526-1.698-3.24M57.848 42.198l.275-.144 1.86.957-.746-.098z" fill="#FFF"/><path fill="#FFF" d="M59.237 42.913l.745.098-1.527 2.451-.227-.926z"/><path d="M56.15 26.264v4.54h2.753v1.946H56.15v6.207c-.008 1.715.468 2.597 1.698 3.24l1.39.716-1.01 1.623c-2.958-1.28-4.433-2.276-4.433-5.01V32.75h-1.958v-1.946h1.958v-3.946l2.355-.594z" fill="#929292"/><path d="M58.228 44.536l.227.926c-3.55-1.525-5.209-2.634-5.209-5.653l.549-.282c0 2.733 1.475 3.73 4.433 5.01M69.435 26.168v-.272c.83 0 1.926.154 2.655.5l-.735-.026c-.115-.058-1.14-.202-1.92-.202" fill="#FFF"/><path fill="#FFF" d="M71.355 26.267l.735.02-1.426 2.812-.277-.926z"/><path d="M70.387 28.173l.277.926c-.464-.18-.897-.27-1.526-.27-1.393 0-2.223 1.047-2.223 2.126l-.547-.284c-.004-1.31 1.026-2.617 2.77-2.617.706-.001 1.21.104 1.25.119M64.013 30.851l-.55.282c0-2.693 1.826-5.237 5.972-5.237v.213c-3.787.005-5.418 2.28-5.422 4.742" fill="#FFF"/><path fill="#FFF" d="M64.013 33.8l-.55-.214v-2.453l.55-.282zM66.368 30.67l.547.285v2.631l-.547.213zM66.368 34.086l.547-.5h3.45l-.546.5z"/><path fill="#FFF" d="M61.756 34.086l-.547-.5h2.255l.549.5zM64.013 35.743l-.55.775H61.21l.547-.775zM69.819 33.8l.546-.214v2.932l-.546-.775z"/><path fill="#FFF" d="M69.819 35.743l.546.775h-3.45l-.547-.775zM61.756 35.743l-.547.775v-2.932l.547.213zM80.683 42.742v-.21c3.017 0 5.206-2.094 5.206-4.697 0-2.604-2.189-4.697-5.206-4.697-3.02 0-5.21 2.093-5.21 4.697 0 2.603 2.19 4.696 5.21 4.696v.211c-3.332.002-5.759-2.321-5.757-5.19-.002-2.87 2.425-5.192 5.757-5.19 3.33-.002 5.756 2.32 5.754 5.19.002 2.869-2.424 5.192-5.754 5.19"/><path d="M80.683 30.418v-.21c5.606 0 8.857 3.797 8.857 7.627 0 3.829-3.251 7.627-8.857 7.627-5.608 0-8.86-3.798-8.86-7.627 0-3.83 3.252-7.628 8.86-7.628v.21c-5.274.002-8.31 3.553-8.313 7.135.003 3.582 3.039 7.132 8.313 7.135 5.271-.003 8.308-3.553 8.31-7.135-.002-3.582-3.039-7.133-8.31-7.134" fill="#FFF"/><path d="M80.683 42.742c3.33.002 5.756-2.321 5.754-5.19.002-2.87-2.424-5.192-5.754-5.19-3.332-.002-5.759 2.32-5.757 5.19-.002 2.869 2.425 5.192 5.757 5.19m0-12.324c5.271.001 8.308 3.552 8.31 7.134-.002 3.583-3.039 7.132-8.31 7.135-5.274-.003-8.31-3.552-8.313-7.135.003-3.582 3.039-7.133 8.313-7.134" fill="#7DFF00"/><g transform="translate(63.448 49.23)"><mask id="f" fill="#fff"><use xlink:href="#e"/></mask><path fill="#FFF" mask="url(#f)" d="M2.92.064l.547.775H.016L.565.064z"/></g><g transform="translate(63.448 35.685)"><mask id="h" fill="#fff"><use xlink:href="#g"/></mask><path fill="#FFF" mask="url(#h)" d="M.565 13.609l-.55.775V.833l.55-.775z"/></g><path d="M69.435 26.109c.78 0 1.805.113 1.92.158l-.968 1.906c-.039-.015-.543-.12-1.25-.119-1.743 0-2.773 1.307-2.77 2.617v3.128h3.452v1.944h-3.451v13.55h-2.355v-13.55h-2.257v-1.944h2.257v-2.948c.004-2.462 1.635-4.737 5.422-4.742" fill="#929292"/><g transform="translate(66.327 35.685)"><mask id="j" fill="#fff"><use xlink:href="#i"/></mask><path fill="#FFF" mask="url(#j)" d="M.04.058l.548.775v13.551l-.547-.775z"/></g><path fill="#FFF" d="M93.338 26.787l-.547-.5h3.45l-.546.5z"/><path fill="#FFF" d="M95.695 26.497l.547-.21v12.955l-.547-.285zM93.338 39.527l-.547.282V26.287l.547.21z"/><path d="M95.695 38.957l.547.285c0 1.674.398 2.27 1.426 2.812l-.276.144c-1.223-.64-1.709-1.388-1.697-3.24M97.392 42.198l.276-.144 1.857.957-.742-.098z" fill="#FFF"/><path fill="#FFF" d="M98.783 42.913l.742.098L98 45.462l-.226-.926zM97.773 44.536l.226.926c-3.55-1.525-5.208-2.634-5.208-5.653l.547-.282c0 2.733 1.475 3.73 4.435 5.01"/><path d="M95.695 26.497v12.46c-.012 1.853.474 2.602 1.697 3.24l1.39.716-1.009 1.623c-2.96-1.28-4.435-2.276-4.435-5.01V26.498h2.357z" fill="#929292"/><path d="M103.141 28.592v.775c-1.061 0-1.925-.777-1.925-1.733 0-.958.864-1.738 1.925-1.738 1.063 0 1.924.78 1.924 1.738 0 .956-.861 1.733-1.924 1.733v-.775c.759 0 1.377-.557 1.377-1.242 0-.684-.618-1.241-1.377-1.241-.758 0-1.377.557-1.377 1.24 0 .686.62 1.243 1.377 1.243" fill="#FFF"/><path d="M103.141 28.592c-.758 0-1.377-.557-1.377-1.242 0-.684.62-1.241 1.377-1.241.759 0 1.377.557 1.377 1.24 0 .686-.618 1.243-1.377 1.243" fill="#929292"/><path fill="#FFF" d="M101.965 31.094l-.55-.5h3.452l-.549.5z"/><path fill="#FFF" d="M104.318 30.804l.549-.21v14.482l-.549-.778zM104.318 44.298l.549.778h-3.452l.55-.778z"/><path fill="#FFF" d="M101.965 44.298l-.55.778V30.594l.55.21z"/><path fill="#929292" d="M101.964 44.298h2.354V30.804h-2.354z"/><path d="M116.974 42.742v-.21c3.023 0 5.21-2.094 5.21-4.697 0-2.604-2.187-4.697-5.21-4.697-3.019 0-5.207 2.093-5.207 4.697 0 2.603 2.188 4.696 5.207 4.696v.211c-3.327.002-5.756-2.321-5.754-5.19-.002-2.87 2.427-5.192 5.754-5.19 3.331-.002 5.758 2.32 5.758 5.19 0 2.869-2.427 5.192-5.758 5.19" fill="#FFF"/><path d="M116.974 30.418v-.21c5.608 0 8.859 3.797 8.859 7.627 0 3.829-3.25 7.627-8.859 7.627-5.606 0-8.856-3.798-8.856-7.627 0-3.83 3.25-7.628 8.856-7.628v.21c-5.274.002-8.309 3.553-8.31 7.135.001 3.582 3.036 7.132 8.31 7.135 5.274-.003 8.31-3.553 8.314-7.135-.003-3.582-3.04-7.133-8.314-7.134" fill="#FFF"/><path d="M116.974 42.742c3.331.002 5.758-2.321 5.758-5.19 0-2.87-2.427-5.192-5.758-5.19-3.327-.002-5.756 2.32-5.754 5.19-.002 2.869 2.427 5.192 5.754 5.19m0-12.324c5.274.001 8.31 3.552 8.314 7.134-.003 3.583-3.04 7.132-8.314 7.135-5.274-.003-8.309-3.552-8.31-7.135.001-3.582 3.036-7.133 8.31-7.134" fill="#929292"/><path d="M135.987 34.497c.061.14.12.25.252.436-.106-.147-.252-.347-.342-.5a.472.472 0 0 1 .09.064M135.485 30.443v-.236c.764 0 1.43.2 1.892.5l-.662-.088a4.463 4.463 0 0 0-1.23-.176M129.566 31.094l-.55-.5h3.253l-.547.5z" fill="#FFF"/><path fill="#FFF" d="M131.722 30.804l.547-.21v1.587l-.547.21zM132.696 32.39l-.363-.21c.563-1.197 1.758-1.973 3.152-1.973v.21c-1.16 0-2.16.651-2.789 1.974"/><path fill="#FFF" d="M131.722 32.68l.547-.5h.064l.363.5zM136.715 30.576l.662.078-1.225 3.083-.255-1.1z"/><path d="M135.918 32.662c.01.088.022.168.053.293.05.235.128.547.181.782-.331-.238-.963-.42-1.294-.42-1.263 0-2.39.866-2.39 2.183l-.55-.281c0-1.606 1.391-2.68 2.94-2.678.406.003 1.068.18 1.06.121" fill="#FFF"/><path fill="#FFF" d="M131.918 35.219l.55.28v9.577l-.55-.778z"/><path fill="#FFF" d="M131.918 44.298l.55.778h-3.452l.55-.778z"/><path d="M135.485 30.418c.667 0 1.222.154 1.23.158l-.818 2.061c.16.12-.588-.093-1.039-.096-1.549-.001-2.94 1.072-2.94 2.678v9.079h-2.352V30.804h2.156v1.587h.974c.629-1.323 1.629-1.973 2.79-1.973" fill="#929292"/><path fill="#FFF" d="M129.566 44.298l-.55.778V30.594l.55.21zM141.26 28.592v.775c-1.064 0-1.925-.777-1.925-1.733 0-.958.86-1.738 1.925-1.738 1.063 0 1.924.78 1.924 1.738 0 .956-.861 1.733-1.924 1.733v-.775c.754 0 1.38-.557 1.38-1.242 0-.684-.626-1.241-1.38-1.241-.76 0-1.38.557-1.38 1.24 0 .686.62 1.243 1.38 1.243"/><path d="M141.26 28.592c-.76 0-1.38-.557-1.38-1.242 0-.684.62-1.241 1.38-1.241.754 0 1.38.557 1.38 1.24 0 .686-.626 1.243-1.38 1.243" fill="#929292"/><path fill="#FFF" d="M140.083 31.094l-.55-.5h3.451l-.548.5z"/><path fill="#FFF" d="M142.436 30.804l.548-.21v14.482l-.548-.778zM142.436 44.298l.548.778h-3.45l.549-.778zM140.083 44.298l-.55.778V30.594l.55.21z"/><path fill="#929292" d="M140.083 44.298h2.353V30.804h-2.353z"/><path d="M152.967 30.418v-.21c2.225 0 4.18.596 6.372 2.002l-.79-.185c-1.627-1.044-3.641-1.56-5.582-1.607" fill="#FFF"/><path fill="#FFF" d="M158.55 32.025l.789.185-1.96 2.184-.07-.984z"/><path d="M157.309 33.41l.07.983c-1.691-1.286-3.182-1.615-4.31-1.615-1.492 0-2.951.658-2.951 1.826 0 .868.76 1.317 2.09 1.525l-.098.205c-1.504-.23-2.533-.804-2.54-2.014.015-1.548 1.81-2.323 3.5-2.317 1.244 0 2.867.36 4.239 1.406" fill="#FFF"/><path fill="#FFF" d="M152.11 36.334l.099-.205 3.48.598-.101.203z"/><path d="M152.54 38.294l-.1.767c-4.512-.748-5.772-2.064-5.772-4.128 0-2.453 2.284-4.726 6.299-4.726v.21c-3.71.008-5.758 2.056-5.754 4.233-.004 1.77 1.052 2.914 5.327 3.644" fill="#FFF"/><path fill="#FFF" d="M154.493 38.622l-.097.768-1.955-.33.099-.766zM146.705 42.605l-.804.314 2.357-2.152-.011.432z"/><path d="M148.247 41.199l.01-.432c1.23 1.196 3.252 2.124 5.044 2.124 1.989 0 3.186-1.018 3.186-1.826 0-.958-.828-1.465-2.091-1.675l.097-.768c1.444.233 2.534.876 2.542 2.161-.019 1.122-1.483 2.328-3.734 2.319-1.956-.003-4.126-.996-5.054-1.903" fill="#FFF"/><path d="M152.967 30.418c1.94.047 3.955.563 5.583 1.607l-1.241 1.384c-1.372-1.046-2.995-1.406-4.24-1.406-1.688-.006-3.484.769-3.5 2.317.008 1.21 1.037 1.784 2.541 2.014l3.478.596c2.272.326 3.795 1.502 3.8 3.375 0 1.885-1.714 4.37-6.254 4.382-2.58 0-4.78-.819-6.43-2.082l1.543-1.406c.928.907 3.098 1.9 5.054 1.903 2.251.009 3.715-1.197 3.733-2.319-.007-1.285-1.097-1.928-2.541-2.16l-1.954-.33c-4.274-.729-5.33-1.873-5.326-3.643-.004-2.177 2.044-4.225 5.754-4.232" fill="#929292"/><path d="M155.588 36.93l.1-.203c2.854.479 4.248 1.705 4.248 3.86 0 2.124-1.924 4.875-6.803 4.875-2.717 0-5.041-.866-7.232-2.543l.804-.313c1.65 1.262 3.85 2.08 6.428 2.08 4.541-.01 6.255-2.496 6.255-4.381-.005-1.873-1.528-3.049-3.8-3.375" fill="#FFF"/></g></svg>
